<?xml version="1.0" encoding="UTF-8"?>
<svg xmlns="http://www.w3.org/2000/svg" xmlns:xlink="http://www.w3.org/1999/xlink" width="626.0px" height="626.0px" viewBox="0 0 626.0 626.0" version="1.1">

<defs>
<polycosvg ratio="1.000000" offsetx="0.000000" offsety="0.000000" />
</defs><g>
<path style="fill:rgb(100.0%,100.0%,100.0%);fill-rule:evenodd;stroke:none;" name="Path No.0" d="M 0.0 0.25 C 90.38754 3.148148 182.3441 -1.0648148 273.0 1.5 C 189.61398 11.282461 112.53615 58.147575 62.7075 125.0887 C 10.741137 194.34264 -8.969995 285.17862 6.298663 370.0144 C 17.424877 435.61456 51.697777 497.02493 99.86244 542.38715 C 122.76617 564.9204 150.01585 582.552 178.84695 596.92267 C 208.52826 611.33905 240.42027 620.0386 273.0 624.5 C 182.08522 626.0831 90.94823 624.57855 0.0 625.5 C 208.67108 626.1657 417.3359 626.16766 626.0 625.5 C 535.49457 625.3366 444.99005 625.15967 354.5 625.0 C 353.99008 624.83 353.50494 624.66833 353.0 624.5 C 353.50992 624.33 353.99506 624.16833 354.5 624.0 C 391.28455 619.2783 427.5569 607.76495 460.13287 590.0298 C 483.6523 577.2486 505.7397 562.1173 524.8701 543.6299 C 586.40826 487.3545 622.40656 405.41064 624.6624 322.34375 C 627.0832 244.44812 600.39294 165.44872 548.524 106.82432 C 499.38586 49.44862 428.03418 10.807521 353.0 1.5 C 443.90744 -0.08314677 535.05505 1.4214597 626.0 0.5 C 417.38495 0.3437415 208.56699 -0.59374154 0.0 0.25 Z M 81.0 311.4527 C 80.65013 336.40842 92.29588 360.48618 109.042465 378.1806 C 126.44469 396.2774 151.31303 406.78784 176.40811 406.99374 C 201.7032 407.37637 226.16164 396.5758 244.22818 379.25732 C 261.68533 361.20514 273.55972 336.677 272.99976 311.12405 C 274.4097 260.1763 228.22577 213.11076 176.85054 215.00137 C 151.62039 214.66975 126.773 225.75285 109.02512 243.47487 C 91.75172 261.3862 80.5028 286.1148 81.0 311.4527 Z M 353.0 310.7561 C 352.3235 336.42703 364.20358 360.8204 381.37265 378.8663 C 399.35843 396.3024 423.78925 407.29755 449.12283 406.99307 C 474.49606 407.01785 499.19827 396.14932 516.88434 378.1967 C 534.3492 360.3556 545.25867 335.62448 544.9998 310.45825 C 545.02264 285.28638 533.9995 260.43762 516.2672 242.76772 C 498.34485 225.06856 473.61588 214.14867 448.212 215.00194 C 397.39078 213.76689 351.8977 260.16107 353.0 310.7561 Z " />
</g>
</svg>
