<?xml version="1.0" standalone="no"?>
<!DOCTYPE svg PUBLIC "-//W3C//DTD SVG 20010904//EN"
 "http://www.w3.org/TR/2001/REC-SVG-20010904/DTD/svg10.dtd">
<svg version="1.0" xmlns="http://www.w3.org/2000/svg"
 width="4096.000000pt" height="4096.000000pt" viewBox="0 0 4096.000000 4096.000000"
 preserveAspectRatio="xMidYMid meet">
<metadata>
Created by potrace 1.14, written by Peter Selinger 2001-2017
</metadata>
<g transform="translate(0.000000,4096.000000) scale(0.100000,-0.100000)"
fill="#fff" stroke="none">
<path d="M13345 26499 c-1161 -65 -2311 -487 -3250 -1191 -490 -369 -950 -840
-1302 -1335 -880 -1240 -1253 -2737 -1062 -4263 127 -1015 526 -1999 1151
-2835 834 -1116 2039 -1915 3389 -2244 475 -116 938 -171 1434 -171 1189 0
2324 341 3315 994 2037 1344 3057 3765 2599 6171 -191 1007 -633 1930 -1315
2750 -147 177 -546 574 -729 726 -490 407 -988 710 -1552 945 -846 352 -1747
504 -2678 453z"/>
<path d="M26905 26499 c-1804 -100 -3489 -1030 -4549 -2513 -1060 -1481 -1390
-3361 -901 -5124 229 -824 639 -1599 1205 -2272 145 -173 547 -574 715 -714
1018 -848 2213 -1325 3515 -1406 1724 -106 3403 531 4625 1755 1388 1390 2006
3332 1680 5278 -71 418 -188 832 -356 1249 -77 194 -262 571 -369 753 -590
1006 -1431 1807 -2455 2336 -955 493 -2020 719 -3110 658z"/>
</g>
</svg>
