<?xml version="1.0" encoding="UTF-8"?>
<svg xmlns="http://www.w3.org/2000/svg" xmlns:xlink="http://www.w3.org/1999/xlink" width="512.0px" height="512.0px" viewBox="0 0 512.0 512.0" version="1.1">

<defs>
<polycosvg ratio="1.000000" offsetx="0.000000" offsety="0.000000" />
</defs><g>
<path style="fill:rgb(100.0%,100.0%,100.0%);fill-rule:evenodd;stroke:none;" name="Path No.8" d="M 36.0 407.0 C 36.983627 407.0 38.016373 407.0 39.0 407.0 C 37.696342 356.75586 41.56938 303.92877 68.58731 259.85342 C 92.00114 221.05736 127.72654 188.16222 170.0 171.0 C 169.10966 163.34543 164.44328 156.4965 163.81139 148.71928 C 162.1763 140.85498 162.67644 132.90205 163.0 125.0 C 150.7247 124.79241 137.11179 125.31005 126.52034 118.00125 C 116.58084 111.839165 110.443054 98.46233 111.0 88.0 C 105.11186 88.57321 100.08824 94.69725 95.60607 97.831116 C 63.17179 125.414925 37.4879 160.94206 22.627409 200.93939 C -2.9849305 267.67728 3.5039783 343.99387 36.0 407.0 Z M 69.0 331.0 C 75.720604 330.85455 82.47059 331.2591 89.16242 330.65903 C 93.77601 330.16943 99.12787 331.85052 104.35812 329.55728 C 117.797264 317.5626 128.8052 303.0415 141.84442 290.61603 C 147.69089 283.59116 154.23267 277.2349 160.59686 270.69376 C 165.95848 265.20248 171.76225 257.53546 179.0 252.33334 C 171.9154 278.46964 161.54637 303.7348 155.0 330.0 C 159.5149 331.19086 164.12091 330.80103 168.68677 330.45947 C 177.21646 331.5431 185.73477 329.82516 193.69847 326.96848 C 223.5893 318.00757 255.04387 315.38562 286.01086 318.59225 C 301.27084 320.0407 316.43143 322.67776 331.3097 326.3189 C 338.4514 328.0693 345.56564 330.27194 352.94324 330.74503 C 356.75162 330.74918 360.56445 330.17657 364.3635 330.73703 C 367.73938 331.3565 372.9398 329.2245 374.0 332.0 C 379.03308 332.67023 384.4765 330.66022 388.02512 329.51364 C 402.42743 324.9165 411.42178 309.42758 410.9757 294.77264 C 410.23376 268.40564 391.32227 247.42943 373.6299 230.12993 C 362.2053 218.93932 348.74985 210.05191 334.97913 202.09795 C 324.6673 197.42227 312.2389 190.47299 301.7407 189.36995 C 297.68726 189.42297 293.39325 194.88824 293.48953 197.93477 C 302.2533 210.78781 313.60016 222.26126 322.86868 234.85315 C 334.59225 248.17525 330.65372 267.05646 316.81302 275.40805 C 311.97476 278.35355 305.08533 280.19104 299.91467 279.16992 C 297.20264 278.66034 294.45023 278.16132 291.696 278.48712 C 284.0043 281.89023 277.10812 290.6686 265.61435 287.10986 C 258.16522 285.73053 252.13219 280.6252 247.76562 274.6797 C 244.30101 270.55225 240.6176 266.48303 238.29913 261.56635 C 233.90918 254.38132 238.265 242.67104 234.4964 237.20836 C 228.39758 229.14746 229.9337 221.25298 232.0 213.0 C 222.52493 210.97612 213.09679 208.28749 204.50336 203.68219 C 200.98549 201.79036 197.57329 199.6674 194.37581 197.28195 C 191.39479 195.81496 187.89189 191.3224 184.88686 191.56311 C 131.99867 210.5438 89.39296 257.17517 73.520706 310.72223 C 71.820786 317.19806 69.40215 324.83997 69.0 331.0 Z M 429.0 329.0 C 425.34964 329.11197 423.06842 333.23746 420.83136 335.56433 C 402.41028 357.04062 371.1706 363.32397 344.7729 355.44415 C 302.51038 343.00552 257.12766 337.91232 213.63731 347.54868 C 173.0633 355.4587 138.10507 378.5779 106.5 404.0 C 106.00066 404.0 105.49337 404.0 105.0 404.0 C 107.61371 395.05603 110.97865 386.2715 113.41607 377.26065 C 115.891075 368.51596 119.97579 360.09738 121.0 351.0 C 116.417336 351.5341 112.8508 357.39685 108.897736 360.60226 C 103.39127 366.52612 98.32181 372.8249 92.267265 378.23273 C 89.063545 380.70187 87.01667 384.44226 84.44441 387.3454 C 84.16224 391.3963 84.34148 395.43027 85.60908 399.34802 C 89.27291 414.303 94.893394 428.70212 102.17681 442.24252 C 105.80342 448.49884 109.44155 454.8411 113.94612 460.52054 C 116.380356 463.97348 122.227585 462.6309 125.78148 463.0 C 129.96767 463.0 134.18745 463.0 138.35767 463.0 C 183.67986 463.0 228.99405 463.0 274.30026 463.0 C 297.8775 463.0 321.40518 463.0 344.96646 463.0 C 362.5438 462.99924 380.10474 463.00092 397.6684 462.9995 C 404.72058 463.95197 408.03958 459.42365 410.16882 453.66367 C 430.0682 416.92038 434.24878 366.23257 429.0 329.0 Z M 168.0 101.0 C 169.97333 94.08964 173.09633 87.48938 176.02219 80.95052 C 178.1814 75.90692 182.17383 70.29367 182.64713 65.16511 C 183.11023 54.282085 171.07716 55.04029 163.90321 54.66944 C 155.82643 55.130497 143.91391 51.814228 138.95561 58.094326 C 135.71906 63.631287 137.8255 70.703735 136.57721 76.69451 C 135.73358 82.41845 135.59776 90.85895 137.43756 95.339485 C 140.37776 99.61679 147.03175 99.353096 151.51187 99.67333 C 157.01617 99.971436 162.58115 99.91109 168.0 101.0 Z M 152.0 84.0 C 156.68196 84.103065 161.33926 84.67874 166.0 85.0 C 165.87767 80.30419 166.32777 75.63011 167.0 71.0 C 162.51964 70.263626 157.76768 69.779205 153.3398 70.544266 C 151.9158 74.39272 151.72316 78.536255 152.0 82.87399 C 152.0 83.251015 152.0 83.62635 152.0 84.0 Z M 179.0 250.4375 C 179.34256 250.84782 179.63123 250.73697 180.0 250.5 C 179.68039 250.29659 179.35574 250.06958 179.0 250.4375 Z M 183.34238 411.49286 C 183.84476 420.74872 192.28769 428.8436 201.45879 427.87994 C 210.60275 427.54614 218.17412 418.25452 216.5569 409.21326 C 215.3456 400.3461 206.26888 393.82437 197.53064 395.21518 C 189.91893 396.30417 183.87305 403.92914 183.34238 411.49286 Z M 220.0 182.0 C 221.59244 172.23035 227.39554 163.2014 236.80711 159.18289 C 244.83833 155.55426 254.77458 156.77472 261.8657 161.81505 C 264.94836 164.18915 267.5925 167.09721 270.17053 169.98557 C 272.15707 171.83322 275.22705 177.07603 277.99866 174.91519 C 299.17612 158.43498 301.00827 123.0629 284.05368 103.09511 C 275.8723 92.30618 263.00012 86.521194 250.10254 83.793236 C 243.2115 81.702 234.54567 82.75274 228.25182 80.8765 C 222.79716 78.61766 215.54367 74.156334 214.0 69.0 C 212.65594 69.0 211.3365 69.0 210.0 69.0 C 200.47588 88.16869 187.09471 107.52937 188.0 130.21214 C 187.42805 141.6727 188.61588 153.68626 195.5679 163.32028 C 200.96965 171.43398 210.48285 181.08313 220.0 182.0 Z M 315.0 167.0 C 369.9938 184.26205 414.8936 227.90129 438.4971 279.71072 C 465.54507 336.301 458.71066 402.59402 436.0 459.0 C 439.19745 458.65857 441.5519 454.678 444.19547 452.24728 C 460.54636 433.58948 473.81216 412.30566 483.93112 389.6846 C 510.79605 329.45255 511.91028 258.26086 487.81607 196.99438 C 465.3522 138.98352 419.48608 90.73255 363.6262 63.814545 C 324.21753 45.224438 279.43085 36.56294 236.0 41.0 C 235.46455 45.38199 234.15463 50.484573 234.41922 54.509945 C 234.93036 56.712025 238.52013 56.88863 240.86676 57.381 C 243.42194 57.669167 245.97858 57.866 248.50996 58.26967 C 272.5338 61.52736 295.41782 74.24445 308.40186 95.17982 C 314.9453 105.83544 319.39886 117.68097 320.39978 130.2143 C 322.99414 142.95271 317.21616 154.92673 315.0 167.0 Z M 261.0 211.5 C 258.02158 215.23106 251.49475 218.00644 251.32352 222.59734 C 250.41357 227.98003 256.36462 232.45634 261.13242 229.62569 C 264.5588 227.93335 267.51947 223.88353 271.0 223.0 C 271.87003 225.81535 275.0113 228.61386 277.0 231.5 C 273.5841 233.7732 269.91858 236.92313 266.99475 239.36046 C 263.7093 242.81026 252.97473 247.48102 257.45166 254.69772 C 261.11935 259.46344 265.829 267.22937 271.5736 266.5412 C 278.36624 264.19482 284.7425 256.05756 291.84753 251.57556 C 292.06503 251.3837 292.2825 251.19185 292.5 251.0 C 295.3022 253.71114 298.09323 258.12607 301.96182 258.59805 C 303.8734 258.77963 306.4334 258.38818 307.72546 257.06796 C 309.10965 255.65938 308.70416 252.50444 308.67886 250.93626 C 307.8973 246.91956 304.2262 243.49628 302.1002 240.60602 C 298.53293 236.15707 294.97284 231.711 291.2871 227.36838 C 279.52032 212.58647 267.45267 198.05164 255.65395 183.31049 C 253.11285 179.78769 249.51724 175.25089 244.06866 178.29636 C 236.59628 183.80652 243.42596 190.79192 247.60518 195.30342 C 252.13652 200.6562 256.2107 206.37924 261.0 211.5 Z M 295.19272 411.42868 C 295.14896 421.04977 303.78897 428.958 313.20917 427.89145 C 322.02975 427.77628 329.68088 417.40472 328.4487 409.73093 C 327.19528 400.8135 318.42596 393.68924 309.45688 395.23022 C 301.79773 396.3228 295.21918 403.4816 295.19272 411.42868 Z " />
</g>
</svg>
